<mxfile host="65bd71144e">
    <diagram id="IyU9G8I5XuJ35-Yla09w" name="Page-1">
        <mxGraphModel dx="490" dy="471" grid="1" gridSize="10" guides="1" tooltips="1" connect="1" arrows="1" fold="1" page="1" pageScale="1" pageWidth="850" pageHeight="1100" math="0" shadow="0">
            <root>
                <mxCell id="0"/>
                <mxCell id="1" parent="0"/>
                <mxCell id="30" style="edgeStyle=none;html=1;exitX=1;exitY=0.5;exitDx=0;exitDy=0;entryX=0;entryY=0.5;entryDx=0;entryDy=0;" edge="1" parent="1" source="2" target="15">
                    <mxGeometry relative="1" as="geometry"/>
                </mxCell>
                <mxCell id="2" value="utilisateur" style="swimlane;fillColor=#1ba1e2;fontColor=#ffffff;strokeColor=#006EAF;" vertex="1" parent="1">
                    <mxGeometry x="70" y="50" width="200" height="260" as="geometry"/>
                </mxCell>
                <mxCell id="4" value="id : Int" style="text;html=1;align=center;verticalAlign=middle;resizable=0;points=[];autosize=1;strokeColor=none;fillColor=none;" vertex="1" parent="2">
                    <mxGeometry x="70" y="30" width="60" height="30" as="geometry"/>
                </mxCell>
                <mxCell id="5" value="nom : varchar" style="text;html=1;align=center;verticalAlign=middle;resizable=0;points=[];autosize=1;strokeColor=none;fillColor=none;" vertex="1" parent="2">
                    <mxGeometry x="50" y="50" width="100" height="30" as="geometry"/>
                </mxCell>
                <mxCell id="6" value="prenom : varchar" style="text;html=1;align=center;verticalAlign=middle;resizable=0;points=[];autosize=1;strokeColor=none;fillColor=none;" vertex="1" parent="2">
                    <mxGeometry x="45" y="70" width="110" height="30" as="geometry"/>
                </mxCell>
                <mxCell id="7" value="email : varchar" style="text;html=1;align=center;verticalAlign=middle;resizable=0;points=[];autosize=1;strokeColor=none;fillColor=none;" vertex="1" parent="2">
                    <mxGeometry x="50" y="90" width="100" height="30" as="geometry"/>
                </mxCell>
                <mxCell id="8" value="tel : number" style="text;html=1;align=center;verticalAlign=middle;resizable=0;points=[];autosize=1;strokeColor=none;fillColor=none;" vertex="1" parent="2">
                    <mxGeometry x="55" y="130" width="90" height="30" as="geometry"/>
                </mxCell>
                <mxCell id="9" value="password : varchar" style="text;html=1;align=center;verticalAlign=middle;resizable=0;points=[];autosize=1;strokeColor=none;fillColor=none;" vertex="1" parent="2">
                    <mxGeometry x="40" y="110" width="120" height="30" as="geometry"/>
                </mxCell>
                <mxCell id="10" value="adresse : varchar" style="text;html=1;align=center;verticalAlign=middle;resizable=0;points=[];autosize=1;strokeColor=none;fillColor=none;" vertex="1" parent="2">
                    <mxGeometry x="40" y="155" width="120" height="30" as="geometry"/>
                </mxCell>
                <mxCell id="12" value="codePostal : number" style="text;html=1;align=center;verticalAlign=middle;resizable=0;points=[];autosize=1;strokeColor=none;fillColor=none;" vertex="1" parent="2">
                    <mxGeometry x="35" y="180" width="130" height="30" as="geometry"/>
                </mxCell>
                <mxCell id="13" value="ville : varchar" style="text;html=1;align=center;verticalAlign=middle;resizable=0;points=[];autosize=1;strokeColor=none;fillColor=none;" vertex="1" parent="2">
                    <mxGeometry x="55" y="200" width="90" height="30" as="geometry"/>
                </mxCell>
                <mxCell id="14" value="admin : boolean" style="text;html=1;align=center;verticalAlign=middle;resizable=0;points=[];autosize=1;strokeColor=none;fillColor=none;" vertex="1" parent="2">
                    <mxGeometry x="45" y="220" width="110" height="30" as="geometry"/>
                </mxCell>
                <mxCell id="15" value="rendezVous" style="swimlane;startSize=35;fillColor=#1ba1e2;fontColor=#ffffff;strokeColor=#006EAF;" vertex="1" parent="1">
                    <mxGeometry x="420" y="40" width="200" height="300" as="geometry"/>
                </mxCell>
                <mxCell id="17" value="id : int" style="text;html=1;align=center;verticalAlign=middle;resizable=0;points=[];autosize=1;strokeColor=none;fillColor=none;" vertex="1" parent="15">
                    <mxGeometry x="70" y="50" width="60" height="30" as="geometry"/>
                </mxCell>
                <mxCell id="18" value="date : Date" style="text;html=1;align=center;verticalAlign=middle;resizable=0;points=[];autosize=1;strokeColor=none;fillColor=none;" vertex="1" parent="15">
                    <mxGeometry x="60" y="80" width="80" height="30" as="geometry"/>
                </mxCell>
                <mxCell id="19" value="prestation1 : varchar" style="text;html=1;align=center;verticalAlign=middle;resizable=0;points=[];autosize=1;strokeColor=none;fillColor=none;" vertex="1" parent="15">
                    <mxGeometry x="40" y="110" width="130" height="30" as="geometry"/>
                </mxCell>
                <mxCell id="21" value="done : boolean" style="text;html=1;align=center;verticalAlign=middle;resizable=0;points=[];autosize=1;strokeColor=none;fillColor=none;" vertex="1" parent="15">
                    <mxGeometry x="55" y="260" width="100" height="30" as="geometry"/>
                </mxCell>
                <mxCell id="29" value="utilisateur : varchar" style="text;html=1;align=center;verticalAlign=middle;resizable=0;points=[];autosize=1;strokeColor=none;fillColor=none;" vertex="1" parent="15">
                    <mxGeometry x="45" y="230" width="120" height="30" as="geometry"/>
                </mxCell>
                <mxCell id="36" value="prestation2 : varchar" style="text;html=1;align=center;verticalAlign=middle;resizable=0;points=[];autosize=1;strokeColor=none;fillColor=none;" vertex="1" parent="15">
                    <mxGeometry x="40" y="140" width="130" height="30" as="geometry"/>
                </mxCell>
                <mxCell id="37" value="prestation3 : varchar" style="text;html=1;align=center;verticalAlign=middle;resizable=0;points=[];autosize=1;strokeColor=none;fillColor=none;" vertex="1" parent="15">
                    <mxGeometry x="40" y="170" width="130" height="30" as="geometry"/>
                </mxCell>
                <mxCell id="39" value="prixTotal : number" style="text;html=1;align=center;verticalAlign=middle;resizable=0;points=[];autosize=1;strokeColor=none;fillColor=none;" vertex="1" parent="15">
                    <mxGeometry x="45" y="200" width="120" height="30" as="geometry"/>
                </mxCell>
                <mxCell id="31" style="edgeStyle=none;html=1;exitX=0.5;exitY=0;exitDx=0;exitDy=0;entryX=0.5;entryY=1;entryDx=0;entryDy=0;" edge="1" parent="1" source="22" target="15">
                    <mxGeometry relative="1" as="geometry"/>
                </mxCell>
                <mxCell id="22" value="prestations" style="swimlane;fillColor=#1ba1e2;fontColor=#ffffff;strokeColor=#006EAF;" vertex="1" parent="1">
                    <mxGeometry x="225" y="530" width="200" height="210" as="geometry"/>
                </mxCell>
                <mxCell id="23" value="id : int" style="text;html=1;align=center;verticalAlign=middle;resizable=0;points=[];autosize=1;strokeColor=none;fillColor=none;" vertex="1" parent="22">
                    <mxGeometry x="70" y="30" width="60" height="30" as="geometry"/>
                </mxCell>
                <mxCell id="26" value="temps : number" style="text;html=1;align=center;verticalAlign=middle;resizable=0;points=[];autosize=1;strokeColor=none;fillColor=none;" vertex="1" parent="22">
                    <mxGeometry x="45" y="125" width="110" height="30" as="geometry"/>
                </mxCell>
                <mxCell id="27" value="description : varchar" style="text;html=1;align=center;verticalAlign=middle;resizable=0;points=[];autosize=1;strokeColor=none;fillColor=none;" vertex="1" parent="22">
                    <mxGeometry x="35" y="155" width="130" height="30" as="geometry"/>
                </mxCell>
                <mxCell id="25" value="prix : number" style="text;html=1;align=center;verticalAlign=middle;resizable=0;points=[];autosize=1;strokeColor=none;fillColor=none;" vertex="1" parent="22">
                    <mxGeometry x="55" y="95" width="90" height="30" as="geometry"/>
                </mxCell>
                <mxCell id="24" value="nom : varchar" style="text;html=1;align=center;verticalAlign=middle;resizable=0;points=[];autosize=1;strokeColor=none;fillColor=none;" vertex="1" parent="22">
                    <mxGeometry x="55" y="60" width="100" height="30" as="geometry"/>
                </mxCell>
                <mxCell id="32" value="*.1" style="text;html=1;align=center;verticalAlign=middle;resizable=0;points=[];autosize=1;strokeColor=none;fillColor=none;" vertex="1" parent="1">
                    <mxGeometry x="385" y="160" width="40" height="30" as="geometry"/>
                </mxCell>
                <mxCell id="33" value="1.*" style="text;html=1;align=center;verticalAlign=middle;resizable=0;points=[];autosize=1;strokeColor=none;fillColor=none;" vertex="1" parent="1">
                    <mxGeometry x="260" y="175" width="40" height="30" as="geometry"/>
                </mxCell>
                <mxCell id="34" value="1.*" style="text;html=1;align=center;verticalAlign=middle;resizable=0;points=[];autosize=1;strokeColor=none;fillColor=none;" vertex="1" parent="1">
                    <mxGeometry x="390" y="340" width="40" height="30" as="geometry"/>
                </mxCell>
                <mxCell id="35" value="*.1" style="text;html=1;align=center;verticalAlign=middle;resizable=0;points=[];autosize=1;strokeColor=none;fillColor=none;" vertex="1" parent="1">
                    <mxGeometry x="340" y="500" width="40" height="30" as="geometry"/>
                </mxCell>
            </root>
        </mxGraphModel>
    </diagram>
</mxfile>